<svg xmlns="http://www.w3.org/2000/svg" xmlns:xlink="http://www.w3.org/1999/xlink" width="500" zoomAndPan="magnify" viewBox="0 0 375 374.999991" height="500" preserveAspectRatio="xMidYMid meet" version="1.0"><defs><clipPath id="ac646f5eb9"><path d="M 37.5 163.402344 L 337.894531 163.402344 L 337.894531 356.136719 L 37.5 356.136719 Z M 37.5 163.402344 " clip-rule="nonzero"/></clipPath><clipPath id="7e962990fa"><path d="M 112.5 163.402344 L 262.5 163.402344 C 303.921875 163.402344 337.5 196.980469 337.5 238.402344 L 337.5 281.136719 C 337.5 322.558594 303.921875 356.136719 262.5 356.136719 L 112.5 356.136719 C 71.078125 356.136719 37.5 322.558594 37.5 281.136719 L 37.5 238.402344 C 37.5 196.980469 71.078125 163.402344 112.5 163.402344 Z M 112.5 163.402344 " clip-rule="nonzero"/></clipPath><clipPath id="f30413c754"><path d="M 0.5 0.402344 L 300.679688 0.402344 L 300.679688 193.136719 L 0.5 193.136719 Z M 0.5 0.402344 " clip-rule="nonzero"/></clipPath><clipPath id="61f821bf2e"><path d="M 75.5 0.402344 L 225.5 0.402344 C 266.921875 0.402344 300.5 33.980469 300.5 75.402344 L 300.5 118.136719 C 300.5 159.558594 266.921875 193.136719 225.5 193.136719 L 75.5 193.136719 C 34.078125 193.136719 0.5 159.558594 0.5 118.136719 L 0.5 75.402344 C 0.5 33.980469 34.078125 0.402344 75.5 0.402344 Z M 75.5 0.402344 " clip-rule="nonzero"/></clipPath><clipPath id="ced1c03c7a"><rect x="0" width="301" y="0" height="194"/></clipPath><clipPath id="a3bd8a3e4c"><path d="M 37.425781 25 L 338 25 L 338 168 L 37.425781 168 Z M 37.425781 25 " clip-rule="nonzero"/></clipPath><clipPath id="7900f11650"><path d="M 204.007812 31.648438 L 334.695312 152.609375 C 337.355469 155.074219 338.238281 158.917969 336.914062 162.292969 C 335.589844 165.671875 332.335938 167.890625 328.707031 167.890625 L 46.285156 167.890625 C 42.660156 167.890625 39.402344 165.671875 38.078125 162.292969 C 36.757812 158.917969 37.636719 155.074219 40.300781 152.609375 L 170.984375 31.648438 C 180.304688 23.023438 194.691406 23.023438 204.007812 31.648438 Z M 204.007812 31.648438 " clip-rule="nonzero"/></clipPath><clipPath id="9bddf8453a"><path d="M 0.425781 0 L 301 0 L 301 143 L 0.425781 143 Z M 0.425781 0 " clip-rule="nonzero"/></clipPath><clipPath id="380e05bd12"><path d="M 167.007812 6.648438 L 297.695312 127.609375 C 300.355469 130.074219 301.238281 133.917969 299.914062 137.292969 C 298.589844 140.671875 295.335938 142.890625 291.707031 142.890625 L 9.285156 142.890625 C 5.660156 142.890625 2.402344 140.671875 1.078125 137.292969 C -0.242188 133.917969 0.636719 130.074219 3.300781 127.609375 L 133.984375 6.648438 C 143.304688 -1.976562 157.691406 -1.976562 167.007812 6.648438 Z M 167.007812 6.648438 " clip-rule="nonzero"/></clipPath><clipPath id="25127dd4e5"><rect x="0" width="301" y="0" height="143"/></clipPath><clipPath id="77e859860e"><path d="M 37.5 158.386719 L 337.5 158.386719 L 337.5 271.808594 L 37.5 271.808594 Z M 37.5 158.386719 " clip-rule="nonzero"/></clipPath><clipPath id="f589726af6"><path d="M 0.5 0.386719 L 300.5 0.386719 L 300.5 113.808594 L 0.5 113.808594 Z M 0.5 0.386719 " clip-rule="nonzero"/></clipPath><clipPath id="fa1148f64d"><rect x="0" width="301" y="0" height="114"/></clipPath><clipPath id="f94eac73d2"><path d="M 141.796875 206.136719 L 233.203125 206.136719 L 233.203125 358.957031 L 141.796875 358.957031 Z M 141.796875 206.136719 " clip-rule="nonzero"/></clipPath><clipPath id="b50d898a9f"><path d="M 172.28125 208.777344 C 176.953125 207.183594 182.296875 206.136719 187.523438 206.136719 C 192.753906 206.136719 197.785156 207.03125 202.421875 208.625 C 202.519531 208.675781 202.621094 208.675781 202.71875 208.726562 C 220.132812 215.101562 232.957031 231.933594 233.203125 252.492188 L 233.203125 358.632812 L 141.796875 358.632812 L 141.796875 252.570312 C 142.042969 231.832031 154.671875 215 172.28125 208.777344 Z M 172.28125 208.777344 " clip-rule="nonzero"/></clipPath><clipPath id="74fd55ec86"><path d="M 0.796875 0.136719 L 92.203125 0.136719 L 92.203125 152.800781 L 0.796875 152.800781 Z M 0.796875 0.136719 " clip-rule="nonzero"/></clipPath><clipPath id="8a68100661"><path d="M 31.28125 2.777344 C 35.953125 1.183594 41.296875 0.136719 46.523438 0.136719 C 51.753906 0.136719 56.785156 1.03125 61.421875 2.625 C 61.519531 2.675781 61.621094 2.675781 61.71875 2.726562 C 79.132812 9.101562 91.957031 25.933594 92.203125 46.492188 L 92.203125 152.632812 L 0.796875 152.632812 L 0.796875 46.570312 C 1.042969 25.832031 13.671875 9 31.28125 2.777344 Z M 31.28125 2.777344 " clip-rule="nonzero"/></clipPath><clipPath id="b4da2ff04c"><rect x="0" width="93" y="0" height="153"/></clipPath></defs><g clip-path="url(#ac646f5eb9)"><g clip-path="url(#7e962990fa)"><g transform="matrix(1, 0, 0, 1, 37, 163)"><g clip-path="url(#ced1c03c7a)"><g clip-path="url(#f30413c754)"><g clip-path="url(#61f821bf2e)"><path fill="#000000" d="M 0.5 0.402344 L 300.140625 0.402344 L 300.140625 193.136719 L 0.5 193.136719 Z M 0.5 0.402344 " fill-opacity="1" fill-rule="nonzero"/></g></g></g></g></g></g><g clip-path="url(#a3bd8a3e4c)"><g clip-path="url(#7900f11650)"><g transform="matrix(1, 0, 0, 1, 37, 25)"><g clip-path="url(#25127dd4e5)"><g clip-path="url(#9bddf8453a)"><g clip-path="url(#380e05bd12)"><rect x="-119.5" width="540" fill="#000000" height="539.999987" y="-107.499998" fill-opacity="1"/></g></g></g></g></g></g><g clip-path="url(#77e859860e)"><g transform="matrix(1, 0, 0, 1, 37, 158)"><g clip-path="url(#fa1148f64d)"><g clip-path="url(#f589726af6)"><path fill="#000000" d="M 0.5 0.386719 L 300.449219 0.386719 L 300.449219 113.808594 L 0.5 113.808594 Z M 0.5 0.386719 " fill-opacity="1" fill-rule="nonzero"/></g></g></g></g><g clip-path="url(#f94eac73d2)"><g clip-path="url(#b50d898a9f)"><g transform="matrix(1, 0, 0, 1, 141, 206)"><g clip-path="url(#b4da2ff04c)"><g clip-path="url(#74fd55ec86)"><g clip-path="url(#8a68100661)"><path fill="#ffffff" d="M 0.796875 0.136719 L 92.203125 0.136719 L 92.203125 152.597656 L 0.796875 152.597656 Z M 0.796875 0.136719 " fill-opacity="1" fill-rule="nonzero"/></g></g></g></g></g></g></svg>