<svg xmlns="http://www.w3.org/2000/svg" xmlns:xlink="http://www.w3.org/1999/xlink" width="500" zoomAndPan="magnify" viewBox="0 0 375 374.999991" height="500" preserveAspectRatio="xMidYMid meet" version="1.0"><defs><clipPath id="55f8c54179"><path d="M 187.5 115.042969 L 375 115.042969 L 375 170.046875 L 187.5 170.046875 Z M 187.5 115.042969 " clip-rule="nonzero"/></clipPath><clipPath id="ceb352bedc"><path d="M 327.035156 115.042969 L 466.574219 115.042969 L 327.035156 170.046875 L 187.5 170.046875 Z M 327.035156 115.042969 " clip-rule="nonzero"/></clipPath><clipPath id="2d371f8c3c"><path d="M 0.5 0.0429688 L 188 0.0429688 L 188 55.046875 L 0.5 55.046875 Z M 0.5 0.0429688 " clip-rule="nonzero"/></clipPath><clipPath id="4a6487c6eb"><path d="M 140.035156 0.0429688 L 279.574219 0.0429688 L 140.035156 55.046875 L 0.5 55.046875 Z M 140.035156 0.0429688 " clip-rule="nonzero"/></clipPath><clipPath id="8235bf2693"><rect x="0" width="188" y="0" height="56"/></clipPath><clipPath id="138b8b9fa8"><path d="M 0 115.042969 L 187.546875 115.042969 L 187.546875 170.046875 L 0 170.046875 Z M 0 115.042969 " clip-rule="nonzero"/></clipPath><clipPath id="28d9cd67ad"><path d="M 47.964844 115.042969 L -91.574219 115.042969 L 47.964844 170.046875 L 187.5 170.046875 Z M 47.964844 115.042969 " clip-rule="nonzero"/></clipPath><clipPath id="2457e8bf3c"><path d="M 0 0.0429688 L 187.546875 0.0429688 L 187.546875 55.046875 L 0 55.046875 Z M 0 0.0429688 " clip-rule="nonzero"/></clipPath><clipPath id="f02be7b097"><path d="M 47.964844 0.0429688 L -91.574219 0.0429688 L 47.964844 55.046875 L 187.5 55.046875 Z M 47.964844 0.0429688 " clip-rule="nonzero"/></clipPath><clipPath id="238c246a93"><rect x="0" width="188" y="0" height="56"/></clipPath><clipPath id="f0715c9252"><path d="M 49.617188 170.046875 L 325.382812 170.046875 L 325.382812 233.441406 L 49.617188 233.441406 Z M 49.617188 170.046875 " clip-rule="nonzero"/></clipPath><clipPath id="9249395e0f"><path d="M 0.617188 0.046875 L 276.382812 0.046875 L 276.382812 63.441406 L 0.617188 63.441406 Z M 0.617188 0.046875 " clip-rule="nonzero"/></clipPath><clipPath id="873b93ff77"><rect x="0" width="277" y="0" height="64"/></clipPath><clipPath id="f043034e1c"><path d="M 187.5 116.628906 L 375 116.628906 L 375 171.636719 L 187.5 171.636719 Z M 187.5 116.628906 " clip-rule="nonzero"/></clipPath><clipPath id="b9126c6c75"><path d="M 327.035156 116.628906 L 466.574219 116.628906 L 327.035156 171.636719 L 187.5 171.636719 Z M 327.035156 116.628906 " clip-rule="nonzero"/></clipPath><clipPath id="05842de058"><path d="M 0.5 0.628906 L 188 0.628906 L 188 55.636719 L 0.5 55.636719 Z M 0.5 0.628906 " clip-rule="nonzero"/></clipPath><clipPath id="03cfa93f0e"><path d="M 140.035156 0.628906 L 279.574219 0.628906 L 140.035156 55.636719 L 0.5 55.636719 Z M 140.035156 0.628906 " clip-rule="nonzero"/></clipPath><clipPath id="03e22b11cb"><rect x="0" width="188" y="0" height="56"/></clipPath><clipPath id="95890a226b"><path d="M 0 116.628906 L 187.546875 116.628906 L 187.546875 171.636719 L 0 171.636719 Z M 0 116.628906 " clip-rule="nonzero"/></clipPath><clipPath id="92137780f1"><path d="M 47.964844 116.628906 L -91.574219 116.628906 L 47.964844 171.636719 L 187.5 171.636719 Z M 47.964844 116.628906 " clip-rule="nonzero"/></clipPath><clipPath id="dd17d46803"><path d="M 0 0.628906 L 187.546875 0.628906 L 187.546875 55.636719 L 0 55.636719 Z M 0 0.628906 " clip-rule="nonzero"/></clipPath><clipPath id="b1011b8450"><path d="M 47.964844 0.628906 L -91.574219 0.628906 L 47.964844 55.636719 L 187.5 55.636719 Z M 47.964844 0.628906 " clip-rule="nonzero"/></clipPath><clipPath id="ea0d223c66"><rect x="0" width="188" y="0" height="56"/></clipPath><clipPath id="a314bd3c99"><path d="M 0 107.691406 L 49.617188 107.691406 L 49.617188 256.484375 L 0 256.484375 Z M 0 107.691406 " clip-rule="nonzero"/></clipPath><clipPath id="9c9351672c"><path d="M 0 0.691406 L 49.617188 0.691406 L 49.617188 149.484375 L 0 149.484375 Z M 0 0.691406 " clip-rule="nonzero"/></clipPath><clipPath id="e2a7090b3b"><rect x="0" width="50" y="0" height="150"/></clipPath><clipPath id="2bb33a0e4d"><path d="M 325.382812 107.691406 L 375 107.691406 L 375 256.484375 L 325.382812 256.484375 Z M 325.382812 107.691406 " clip-rule="nonzero"/></clipPath><clipPath id="9bce38220a"><path d="M 0.382812 0.691406 L 50 0.691406 L 50 149.484375 L 0.382812 149.484375 Z M 0.382812 0.691406 " clip-rule="nonzero"/></clipPath><clipPath id="27c56af679"><rect x="0" width="50" y="0" height="150"/></clipPath><clipPath id="d86ec61a14"><path d="M 49.617188 176.539062 L 325.519531 176.539062 L 325.519531 281.957031 L 49.617188 281.957031 Z M 49.617188 176.539062 " clip-rule="nonzero"/></clipPath><clipPath id="b05a4c7323"><path d="M 98.367188 176.539062 L 276.632812 176.539062 C 289.5625 176.539062 301.960938 181.675781 311.105469 190.816406 C 320.246094 199.960938 325.382812 212.359375 325.382812 225.289062 L 325.382812 233.207031 C 325.382812 246.136719 320.246094 258.535156 311.105469 267.679688 C 301.960938 276.820312 289.5625 281.957031 276.632812 281.957031 L 98.367188 281.957031 C 85.4375 281.957031 73.039062 276.820312 63.894531 267.679688 C 54.753906 258.535156 49.617188 246.136719 49.617188 233.207031 L 49.617188 225.289062 C 49.617188 212.359375 54.753906 199.960938 63.894531 190.816406 C 73.039062 181.675781 85.4375 176.539062 98.367188 176.539062 Z M 98.367188 176.539062 " clip-rule="nonzero"/></clipPath><clipPath id="51e953c7d3"><path d="M 0.617188 0.539062 L 276.441406 0.539062 L 276.441406 105.957031 L 0.617188 105.957031 Z M 0.617188 0.539062 " clip-rule="nonzero"/></clipPath><clipPath id="f7f4487b59"><path d="M 49.367188 0.539062 L 227.632812 0.539062 C 240.5625 0.539062 252.960938 5.675781 262.105469 14.816406 C 271.246094 23.960938 276.382812 36.359375 276.382812 49.289062 L 276.382812 57.207031 C 276.382812 70.136719 271.246094 82.535156 262.105469 91.679688 C 252.960938 100.820312 240.5625 105.957031 227.632812 105.957031 L 49.367188 105.957031 C 36.4375 105.957031 24.039062 100.820312 14.894531 91.679688 C 5.753906 82.535156 0.617188 70.136719 0.617188 57.207031 L 0.617188 49.289062 C 0.617188 36.359375 5.753906 23.960938 14.894531 14.816406 C 24.039062 5.675781 36.4375 0.539062 49.367188 0.539062 Z M 49.367188 0.539062 " clip-rule="nonzero"/></clipPath><clipPath id="2d0053b93a"><rect x="0" width="277" y="0" height="106"/></clipPath><clipPath id="c8f2ac4fae"><path d="M 61.550781 93 L 313.40625 93 L 313.40625 142.933594 L 61.550781 142.933594 Z M 61.550781 93 " clip-rule="nonzero"/></clipPath><clipPath id="e8d645a91c"><path d="M 312.539062 95.484375 L 193.789062 141.597656 C 189.738281 143.167969 185.25 143.167969 181.203125 141.597656 L 62.453125 95.484375 C 61.886719 95.265625 61.554688 94.671875 61.667969 94.074219 C 61.78125 93.476562 62.300781 93.042969 62.910156 93.042969 L 312.082031 93.042969 C 312.6875 93.042969 313.210938 93.476562 313.324219 94.074219 C 313.433594 94.671875 313.105469 95.265625 312.539062 95.484375 Z M 312.539062 95.484375 " clip-rule="nonzero"/></clipPath><clipPath id="be4e52c905"><path d="M 0.550781 0 L 252.40625 0 L 252.40625 49.933594 L 0.550781 49.933594 Z M 0.550781 0 " clip-rule="nonzero"/></clipPath><clipPath id="1333153391"><path d="M 251.539062 2.484375 L 132.789062 48.597656 C 128.738281 50.167969 124.25 50.167969 120.203125 48.597656 L 1.453125 2.484375 C 0.886719 2.265625 0.554688 1.671875 0.667969 1.074219 C 0.78125 0.476562 1.300781 0.0429688 1.910156 0.0429688 L 251.082031 0.0429688 C 251.6875 0.0429688 252.210938 0.476562 252.324219 1.074219 C 252.433594 1.671875 252.105469 2.265625 251.539062 2.484375 Z M 251.539062 2.484375 " clip-rule="nonzero"/></clipPath><clipPath id="8ac6276dce"><rect x="0" width="253" y="0" height="50"/></clipPath></defs><g clip-path="url(#55f8c54179)"><g clip-path="url(#ceb352bedc)"><g transform="matrix(1, 0, 0, 1, 187, 115)"><g clip-path="url(#8235bf2693)"><g clip-path="url(#2d371f8c3c)"><g clip-path="url(#4a6487c6eb)"><path fill="#000000" d="M 0.5 0.0429688 L 279.621094 0.0429688 L 279.621094 55.046875 L 0.5 55.046875 Z M 0.5 0.0429688 " fill-opacity="1" fill-rule="nonzero"/></g></g></g></g></g></g><g clip-path="url(#138b8b9fa8)"><g clip-path="url(#28d9cd67ad)"><g transform="matrix(1, 0, 0, 1, 0, 115)"><g clip-path="url(#238c246a93)"><g clip-path="url(#2457e8bf3c)"><g clip-path="url(#f02be7b097)"><path fill="#000000" d="M -91.574219 0.0429688 L 187.546875 0.0429688 L 187.546875 55.046875 L -91.574219 55.046875 Z M -91.574219 0.0429688 " fill-opacity="1" fill-rule="nonzero"/></g></g></g></g></g></g><g clip-path="url(#f0715c9252)"><g transform="matrix(1, 0, 0, 1, 49, 170)"><g clip-path="url(#873b93ff77)"><g clip-path="url(#9249395e0f)"><path fill="#000000" d="M 0.617188 0.046875 L 276.46875 0.046875 L 276.46875 63.441406 L 0.617188 63.441406 Z M 0.617188 0.046875 " fill-opacity="1" fill-rule="nonzero"/></g></g></g></g><g clip-path="url(#f043034e1c)"><g clip-path="url(#b9126c6c75)"><g transform="matrix(1, 0, 0, 1, 187, 116)"><g clip-path="url(#03e22b11cb)"><g clip-path="url(#05842de058)"><g clip-path="url(#03cfa93f0e)"><path fill="#000000" d="M 0.5 0.628906 L 279.621094 0.628906 L 279.621094 55.636719 L 0.5 55.636719 Z M 0.5 0.628906 " fill-opacity="1" fill-rule="nonzero"/></g></g></g></g></g></g><g clip-path="url(#95890a226b)"><g clip-path="url(#92137780f1)"><g transform="matrix(1, 0, 0, 1, 0, 116)"><g clip-path="url(#ea0d223c66)"><g clip-path="url(#dd17d46803)"><g clip-path="url(#b1011b8450)"><path fill="#000000" d="M -91.574219 0.628906 L 187.546875 0.628906 L 187.546875 55.636719 L -91.574219 55.636719 Z M -91.574219 0.628906 " fill-opacity="1" fill-rule="nonzero"/></g></g></g></g></g></g><g clip-path="url(#a314bd3c99)"><g transform="matrix(1, 0, 0, 1, 0, 107)"><g clip-path="url(#e2a7090b3b)"><g clip-path="url(#9c9351672c)"><path fill="#ffffff" d="M -99.179688 0.691406 L 49.617188 0.691406 L 49.617188 149.484375 L -99.179688 149.484375 Z M -99.179688 0.691406 " fill-opacity="1" fill-rule="nonzero"/></g></g></g></g><g clip-path="url(#2bb33a0e4d)"><g transform="matrix(1, 0, 0, 1, 325, 107)"><g clip-path="url(#27c56af679)"><g clip-path="url(#9bce38220a)"><path fill="#ffffff" d="M 0.382812 0.691406 L 149.179688 0.691406 L 149.179688 149.484375 L 0.382812 149.484375 Z M 0.382812 0.691406 " fill-opacity="1" fill-rule="nonzero"/></g></g></g></g><g clip-path="url(#d86ec61a14)"><g clip-path="url(#b05a4c7323)"><g transform="matrix(1, 0, 0, 1, 49, 176)"><g clip-path="url(#2d0053b93a)"><g clip-path="url(#51e953c7d3)"><g clip-path="url(#f7f4487b59)"><path fill="#000000" d="M 0.617188 0.539062 L 276.519531 0.539062 L 276.519531 105.957031 L 0.617188 105.957031 Z M 0.617188 0.539062 " fill-opacity="1" fill-rule="nonzero"/></g></g></g></g></g></g><g clip-path="url(#c8f2ac4fae)"><g clip-path="url(#e8d645a91c)"><g transform="matrix(1, 0, 0, 1, 61, 93)"><g clip-path="url(#8ac6276dce)"><g clip-path="url(#be4e52c905)"><g clip-path="url(#1333153391)"><path fill="#000000" d="M -4.839844 0.0429688 L 257.796875 0.0429688 L 257.796875 51.132812 L -4.839844 51.132812 Z M -4.839844 0.0429688 " fill-opacity="1" fill-rule="nonzero"/></g></g></g></g></g></g></svg>