<svg xmlns="http://www.w3.org/2000/svg" xmlns:xlink="http://www.w3.org/1999/xlink" width="500" zoomAndPan="magnify" viewBox="0 0 375 374.999991" height="500" preserveAspectRatio="xMidYMid meet" version="1.0"><defs><clipPath id="f6291fca4f"><path d="M 0 0 L 375 0 L 375 375 L 0 375 Z M 0 0 " clip-rule="nonzero"/></clipPath><clipPath id="5a792693c6"><path d="M 0 0 L 288 0 L 288 375 L 0 375 Z M 0 0 " clip-rule="nonzero"/></clipPath><clipPath id="a115a32ccf"><path d="M 0 0 L 362 0 L 362 375 L 0 375 Z M 0 0 " clip-rule="nonzero"/></clipPath><clipPath id="9dbb873b7a"><path d="M 0 23 L 375 23 L 375 375 L 0 375 Z M 0 23 " clip-rule="nonzero"/></clipPath><clipPath id="b091945151"><path d="M 87 24 L 375 24 L 375 375 L 87 375 Z M 87 24 " clip-rule="nonzero"/></clipPath><clipPath id="83485f8f6f"><rect x="0" width="375" y="0" height="375"/></clipPath></defs><rect x="-37.5" width="450" fill="#ffffff" y="-37.499999" height="449.999989" fill-opacity="1"/><rect x="-37.5" width="450" fill="#ffffff" y="-37.499999" height="449.999989" fill-opacity="1"/><g transform="matrix(1, 0, 0, 1, 0, 0)"><g clip-path="url(#83485f8f6f)"><g clip-path="url(#f6291fca4f)"><path stroke-linecap="butt" transform="matrix(0.721508, 0, 0, 0.721508, 32.764188, 30.812869)" fill="none" stroke-linejoin="miter" d="M 401.423637 307.818344 L 401.423637 374.751729 C 401.423637 388.005221 390.67683 398.752028 377.423338 398.752028 L 51.500038 398.752028 C 38.246546 398.752028 27.49974 388.005221 27.49974 374.751729 L 27.49974 51.497535 C 27.49974 38.244043 38.246546 27.502651 51.500038 27.502651 L 377.423338 27.502651 C 390.67683 27.502651 401.423637 38.244043 401.423637 51.497535 L 401.423637 320.855276 " stroke="#000000" stroke-width="55" stroke-opacity="1" stroke-miterlimit="4"/></g><g clip-path="url(#5a792693c6)"><path stroke-linecap="round" transform="matrix(0.510183, -0.510183, 0.510183, 0.510183, 36.210485, 217.402119)" fill="none" stroke-linejoin="miter" d="M 19.999168 19.99961 L 152.028964 19.99961 " stroke="#000000" stroke-width="40" stroke-opacity="1" stroke-miterlimit="4"/></g><g clip-path="url(#a115a32ccf)"><path stroke-linecap="round" transform="matrix(0.510183, 0.510183, -0.510183, 0.510183, 124.907648, 129.819044)" fill="none" stroke-linejoin="miter" d="M 19.998819 20.001559 L 164.244663 19.997731 " stroke="#000000" stroke-width="40" stroke-opacity="1" stroke-miterlimit="4"/></g><g clip-path="url(#9dbb873b7a)"><path stroke-linecap="round" transform="matrix(0.501083, -0.519124, 0.519124, 0.501083, 97.352048, 324.142978)" fill="none" stroke-linejoin="miter" d="M 20.002469 20.000755 L 283.938697 20.000764 " stroke="#000000" stroke-width="40" stroke-opacity="1" stroke-miterlimit="4"/></g><g clip-path="url(#b091945151)"><path stroke-linecap="round" transform="matrix(0.510183, 0.510183, -0.510183, 0.510183, 251.149354, 167.047811)" fill="none" stroke-linejoin="miter" d="M 20.00096 20.002755 L 135.197799 19.998927 " stroke="#000000" stroke-width="40" stroke-opacity="1" stroke-miterlimit="4"/></g></g></g></svg>