<svg xmlns="http://www.w3.org/2000/svg" xmlns:xlink="http://www.w3.org/1999/xlink" width="500" zoomAndPan="magnify" viewBox="0 0 375 374.999991" height="500" preserveAspectRatio="xMidYMid meet" version="1.0"><defs><clipPath id="ca9b604459"><path d="M 63.605469 170.332031 L 311.535156 170.332031 L 311.535156 213.65625 L 63.605469 213.65625 Z M 63.605469 170.332031 " clip-rule="nonzero"/></clipPath><clipPath id="5f98b69f8c"><path d="M 85.265625 170.332031 L 289.734375 170.332031 C 301.695312 170.332031 311.394531 180.03125 311.394531 191.996094 C 311.394531 203.957031 301.695312 213.65625 289.734375 213.65625 L 85.265625 213.65625 C 73.304688 213.65625 63.605469 203.957031 63.605469 191.996094 C 63.605469 180.03125 73.304688 170.332031 85.265625 170.332031 Z M 85.265625 170.332031 " clip-rule="nonzero"/></clipPath><clipPath id="b1814b450f"><path d="M 0.605469 0.332031 L 248.519531 0.332031 L 248.519531 43.65625 L 0.605469 43.65625 Z M 0.605469 0.332031 " clip-rule="nonzero"/></clipPath><clipPath id="0c79630cb0"><path d="M 22.265625 0.332031 L 226.734375 0.332031 C 238.695312 0.332031 248.394531 10.03125 248.394531 21.996094 C 248.394531 33.957031 238.695312 43.65625 226.734375 43.65625 L 22.265625 43.65625 C 10.304688 43.65625 0.605469 33.957031 0.605469 21.996094 C 0.605469 10.03125 10.304688 0.332031 22.265625 0.332031 Z M 22.265625 0.332031 " clip-rule="nonzero"/></clipPath><clipPath id="8e7cdf4253"><rect x="0" width="249" y="0" height="44"/></clipPath><clipPath id="7556da18ca"><path d="M 63.605469 89.742188 L 311.535156 89.742188 L 311.535156 133.066406 L 63.605469 133.066406 Z M 63.605469 89.742188 " clip-rule="nonzero"/></clipPath><clipPath id="1c0da37060"><path d="M 85.265625 89.742188 L 289.734375 89.742188 C 301.695312 89.742188 311.394531 99.4375 311.394531 111.402344 C 311.394531 123.367188 301.695312 133.066406 289.734375 133.066406 L 85.265625 133.066406 C 73.304688 133.066406 63.605469 123.367188 63.605469 111.402344 C 63.605469 99.4375 73.304688 89.742188 85.265625 89.742188 Z M 85.265625 89.742188 " clip-rule="nonzero"/></clipPath><clipPath id="80e94ca896"><path d="M 0.605469 0.742188 L 248.519531 0.742188 L 248.519531 44.066406 L 0.605469 44.066406 Z M 0.605469 0.742188 " clip-rule="nonzero"/></clipPath><clipPath id="12672d80d5"><path d="M 22.265625 0.742188 L 226.734375 0.742188 C 238.695312 0.742188 248.394531 10.4375 248.394531 22.402344 C 248.394531 34.367188 238.695312 44.066406 226.734375 44.066406 L 22.265625 44.066406 C 10.304688 44.066406 0.605469 34.367188 0.605469 22.402344 C 0.605469 10.4375 10.304688 0.742188 22.265625 0.742188 Z M 22.265625 0.742188 " clip-rule="nonzero"/></clipPath><clipPath id="ba9657c258"><rect x="0" width="249" y="0" height="45"/></clipPath><clipPath id="04f87d4058"><path d="M 63.605469 251.15625 L 311.535156 251.15625 L 311.535156 294.480469 L 63.605469 294.480469 Z M 63.605469 251.15625 " clip-rule="nonzero"/></clipPath><clipPath id="a0e391d8e5"><path d="M 85.265625 251.15625 L 289.734375 251.15625 C 301.695312 251.15625 311.394531 260.855469 311.394531 272.820312 C 311.394531 284.78125 301.695312 294.480469 289.734375 294.480469 L 85.265625 294.480469 C 73.304688 294.480469 63.605469 284.78125 63.605469 272.820312 C 63.605469 260.855469 73.304688 251.15625 85.265625 251.15625 Z M 85.265625 251.15625 " clip-rule="nonzero"/></clipPath><clipPath id="4e835eee3e"><path d="M 0.605469 0.15625 L 248.519531 0.15625 L 248.519531 43.480469 L 0.605469 43.480469 Z M 0.605469 0.15625 " clip-rule="nonzero"/></clipPath><clipPath id="29d004f590"><path d="M 22.265625 0.15625 L 226.734375 0.15625 C 238.695312 0.15625 248.394531 9.855469 248.394531 21.820312 C 248.394531 33.78125 238.695312 43.480469 226.734375 43.480469 L 22.265625 43.480469 C 10.304688 43.480469 0.605469 33.78125 0.605469 21.820312 C 0.605469 9.855469 10.304688 0.15625 22.265625 0.15625 Z M 22.265625 0.15625 " clip-rule="nonzero"/></clipPath><clipPath id="266c95cdf6"><rect x="0" width="249" y="0" height="44"/></clipPath></defs><g clip-path="url(#ca9b604459)"><g clip-path="url(#5f98b69f8c)"><g transform="matrix(1, 0, 0, 1, 63, 170)"><g clip-path="url(#8e7cdf4253)"><g clip-path="url(#b1814b450f)"><g clip-path="url(#0c79630cb0)"><path fill="#000000" d="M 0.605469 0.332031 L 248.363281 0.332031 L 248.363281 43.65625 L 0.605469 43.65625 Z M 0.605469 0.332031 " fill-opacity="1" fill-rule="nonzero"/></g></g></g></g></g></g><g clip-path="url(#7556da18ca)"><g clip-path="url(#1c0da37060)"><g transform="matrix(1, 0, 0, 1, 63, 89)"><g clip-path="url(#ba9657c258)"><g clip-path="url(#80e94ca896)"><g clip-path="url(#12672d80d5)"><path fill="#000000" d="M 0.605469 0.742188 L 248.363281 0.742188 L 248.363281 44.066406 L 0.605469 44.066406 Z M 0.605469 0.742188 " fill-opacity="1" fill-rule="nonzero"/></g></g></g></g></g></g><g clip-path="url(#04f87d4058)"><g clip-path="url(#a0e391d8e5)"><g transform="matrix(1, 0, 0, 1, 63, 251)"><g clip-path="url(#266c95cdf6)"><g clip-path="url(#4e835eee3e)"><g clip-path="url(#29d004f590)"><path fill="#000000" d="M 0.605469 0.15625 L 248.363281 0.15625 L 248.363281 43.480469 L 0.605469 43.480469 Z M 0.605469 0.15625 " fill-opacity="1" fill-rule="nonzero"/></g></g></g></g></g></g></svg>