<svg xmlns="http://www.w3.org/2000/svg" xmlns:xlink="http://www.w3.org/1999/xlink" width="500" zoomAndPan="magnify" viewBox="0 0 375 374.999991" height="500" preserveAspectRatio="xMidYMid meet" version="1.0"><defs><clipPath id="6c10854b40"><path d="M 37.5 37.5 L 267.34375 37.5 L 267.34375 267.34375 L 37.5 267.34375 Z M 37.5 37.5 " clip-rule="nonzero"/></clipPath><clipPath id="40bf781f53"><path d="M 152.421875 37.5 C 88.953125 37.5 37.5 88.953125 37.5 152.421875 C 37.5 215.890625 88.953125 267.34375 152.421875 267.34375 C 215.890625 267.34375 267.34375 215.890625 267.34375 152.421875 C 267.34375 88.953125 215.890625 37.5 152.421875 37.5 Z M 152.421875 37.5 " clip-rule="nonzero"/></clipPath><clipPath id="fcaacebdd5"><path d="M 0.5 0.5 L 230.34375 0.5 L 230.34375 230.34375 L 0.5 230.34375 Z M 0.5 0.5 " clip-rule="nonzero"/></clipPath><clipPath id="64fd6cbeaf"><path d="M 115.421875 0.5 C 51.953125 0.5 0.5 51.953125 0.5 115.421875 C 0.5 178.890625 51.953125 230.34375 115.421875 230.34375 C 178.890625 230.34375 230.34375 178.890625 230.34375 115.421875 C 230.34375 51.953125 178.890625 0.5 115.421875 0.5 Z M 115.421875 0.5 " clip-rule="nonzero"/></clipPath><clipPath id="53ea117c71"><rect x="0" width="231" y="0" height="231"/></clipPath><clipPath id="e1bf1ceba6"><path d="M 205 205 L 329 205 L 329 329 L 205 329 Z M 205 205 " clip-rule="nonzero"/></clipPath><clipPath id="ad68a3b852"><path d="M 195.3125 230.863281 L 230.863281 195.3125 L 339.453125 303.902344 L 303.90625 339.453125 Z M 195.3125 230.863281 " clip-rule="nonzero"/></clipPath><clipPath id="64293ff2f9"><path d="M 213.089844 213.089844 C 222.90625 203.273438 238.820312 203.273438 248.636719 213.089844 L 321.601562 286.050781 C 331.417969 295.867188 331.417969 311.78125 321.601562 321.597656 C 311.785156 331.414062 295.867188 331.414062 286.050781 321.597656 L 213.089844 248.636719 C 203.273438 238.820312 203.273438 222.90625 213.089844 213.089844 Z M 213.089844 213.089844 " clip-rule="nonzero"/></clipPath><clipPath id="ad19c89812"><path d="M 0 0 L 124 0 L 124 124 L 0 124 Z M 0 0 " clip-rule="nonzero"/></clipPath><clipPath id="d73c61334c"><path d="M -9.6875 25.863281 L 25.863281 -9.6875 L 134.453125 98.902344 L 98.90625 134.453125 Z M -9.6875 25.863281 " clip-rule="nonzero"/></clipPath><clipPath id="154681c314"><path d="M 8.089844 8.089844 C 17.90625 -1.726562 33.820312 -1.726562 43.636719 8.089844 L 116.601562 81.050781 C 126.417969 90.867188 126.417969 106.78125 116.601562 116.597656 C 106.785156 126.414062 90.867188 126.414062 81.050781 116.597656 L 8.089844 43.636719 C -1.726562 33.820312 -1.726562 17.90625 8.089844 8.089844 Z M 8.089844 8.089844 " clip-rule="nonzero"/></clipPath><clipPath id="77c74b5b8d"><rect x="0" width="124" y="0" height="124"/></clipPath><clipPath id="e6f6876874"><path d="M 76.902344 76.902344 L 227.941406 76.902344 L 227.941406 227.941406 L 76.902344 227.941406 Z M 76.902344 76.902344 " clip-rule="nonzero"/></clipPath><clipPath id="14d0ede20a"><path d="M 152.421875 76.902344 C 110.714844 76.902344 76.902344 110.714844 76.902344 152.421875 C 76.902344 194.128906 110.714844 227.941406 152.421875 227.941406 C 194.128906 227.941406 227.941406 194.128906 227.941406 152.421875 C 227.941406 110.714844 194.128906 76.902344 152.421875 76.902344 Z M 152.421875 76.902344 " clip-rule="nonzero"/></clipPath><clipPath id="a29d4a8a72"><path d="M 0.902344 0.902344 L 151.941406 0.902344 L 151.941406 151.941406 L 0.902344 151.941406 Z M 0.902344 0.902344 " clip-rule="nonzero"/></clipPath><clipPath id="aa163f02b9"><path d="M 76.421875 0.902344 C 34.714844 0.902344 0.902344 34.714844 0.902344 76.421875 C 0.902344 118.128906 34.714844 151.941406 76.421875 151.941406 C 118.128906 151.941406 151.941406 118.128906 151.941406 76.421875 C 151.941406 34.714844 118.128906 0.902344 76.421875 0.902344 Z M 76.421875 0.902344 " clip-rule="nonzero"/></clipPath><clipPath id="c9dc7eefae"><rect x="0" width="152" y="0" height="152"/></clipPath></defs><g clip-path="url(#6c10854b40)"><g clip-path="url(#40bf781f53)"><g transform="matrix(1, 0, 0, 1, 37, 37)"><g clip-path="url(#53ea117c71)"><g clip-path="url(#fcaacebdd5)"><g clip-path="url(#64fd6cbeaf)"><path fill="#000000" d="M 0.5 0.5 L 230.34375 0.5 L 230.34375 230.34375 L 0.5 230.34375 Z M 0.5 0.5 " fill-opacity="1" fill-rule="nonzero"/></g></g></g></g></g></g><g clip-path="url(#e1bf1ceba6)"><g clip-path="url(#ad68a3b852)"><g clip-path="url(#64293ff2f9)"><g transform="matrix(1, 0, 0, 1, 205, 205)"><g clip-path="url(#77c74b5b8d)"><g clip-path="url(#ad19c89812)"><g clip-path="url(#d73c61334c)"><g clip-path="url(#154681c314)"><path fill="#000000" d="M -9.6875 25.863281 L 25.863281 -9.6875 L 134.316406 98.765625 L 98.765625 134.3125 Z M -9.6875 25.863281 " fill-opacity="1" fill-rule="nonzero"/></g></g></g></g></g></g></g></g><g clip-path="url(#e6f6876874)"><g clip-path="url(#14d0ede20a)"><g transform="matrix(1, 0, 0, 1, 76, 76)"><g clip-path="url(#c9dc7eefae)"><g clip-path="url(#a29d4a8a72)"><g clip-path="url(#aa163f02b9)"><path fill="#ffffff" d="M 0.902344 0.902344 L 151.941406 0.902344 L 151.941406 151.941406 L 0.902344 151.941406 Z M 0.902344 0.902344 " fill-opacity="1" fill-rule="nonzero"/></g></g></g></g></g></g></svg>