<svg xmlns="http://www.w3.org/2000/svg" xmlns:xlink="http://www.w3.org/1999/xlink" width="500" zoomAndPan="magnify" viewBox="0 0 375 374.999991" height="500" preserveAspectRatio="xMidYMid meet" version="1.0"><defs><clipPath id="f6867121fd"><path d="M 0.5 0.5 L 230.34375 0.5 L 230.34375 230.34375 L 0.5 230.34375 Z M 0.5 0.5 " clip-rule="nonzero"/></clipPath><clipPath id="db37ff0930"><path d="M 115.421875 0.5 C 51.953125 0.5 0.5 51.953125 0.5 115.421875 C 0.5 178.890625 51.953125 230.34375 115.421875 230.34375 C 178.890625 230.34375 230.34375 178.890625 230.34375 115.421875 C 230.34375 51.953125 178.890625 0.5 115.421875 0.5 Z M 115.421875 0.5 " clip-rule="nonzero"/></clipPath><clipPath id="82b8e47622"><path d="M 0.5 0.5 L 230.34375 0.5 L 230.34375 230.34375 L 0.5 230.34375 Z M 0.5 0.5 " clip-rule="nonzero"/></clipPath><clipPath id="d9c48251ca"><path d="M 115.421875 0.5 C 51.953125 0.5 0.5 51.953125 0.5 115.421875 C 0.5 178.890625 51.953125 230.34375 115.421875 230.34375 C 178.890625 230.34375 230.34375 178.890625 230.34375 115.421875 C 230.34375 51.953125 178.890625 0.5 115.421875 0.5 Z M 115.421875 0.5 " clip-rule="nonzero"/></clipPath><clipPath id="b643ac52bf"><rect x="0" width="231" y="0" height="231"/></clipPath><clipPath id="efdb0f7ae2"><path d="M 165 165 L 288 165 L 288 288 L 165 288 Z M 165 165 " clip-rule="nonzero"/></clipPath><clipPath id="d0b502e9f2"><path d="M 156.867188 187.8125 L 187.816406 156.859375 L 296.382812 265.425781 L 265.433594 296.375 Z M 156.867188 187.8125 " clip-rule="nonzero"/></clipPath><clipPath id="9ab4c0bf72"><path d="M 172.34375 172.335938 C 176.445312 168.230469 182.011719 165.925781 187.816406 165.925781 C 193.621094 165.925781 199.1875 168.230469 203.292969 172.335938 L 280.855469 249.898438 C 284.957031 254.003906 287.265625 259.570312 287.265625 265.371094 C 287.265625 271.175781 284.957031 276.742188 280.855469 280.847656 C 276.75 284.953125 271.183594 287.257812 265.378906 287.257812 C 259.574219 287.257812 254.007812 284.953125 249.90625 280.847656 L 172.34375 203.285156 C 168.238281 199.179688 165.933594 193.613281 165.933594 187.8125 C 165.933594 182.007812 168.238281 176.441406 172.34375 172.335938 Z M 172.34375 172.335938 " clip-rule="nonzero"/></clipPath><clipPath id="69db7a13b3"><path d="M 0.800781 0.800781 L 122.480469 0.800781 L 122.480469 122.480469 L 0.800781 122.480469 Z M 0.800781 0.800781 " clip-rule="nonzero"/></clipPath><clipPath id="e827ae3a5c"><path d="M -8.132812 22.8125 L 22.816406 -8.140625 L 131.382812 100.425781 L 100.433594 131.375 Z M -8.132812 22.8125 " clip-rule="nonzero"/></clipPath><clipPath id="4bcd0d032f"><path d="M 7.34375 7.335938 C 11.445312 3.230469 17.011719 0.925781 22.816406 0.925781 C 28.621094 0.925781 34.1875 3.230469 38.292969 7.335938 L 115.855469 84.898438 C 119.957031 89.003906 122.265625 94.570312 122.265625 100.371094 C 122.265625 106.175781 119.957031 111.742188 115.855469 115.847656 C 111.75 119.953125 106.183594 122.257812 100.378906 122.257812 C 94.574219 122.257812 89.007812 119.953125 84.90625 115.847656 L 7.34375 38.285156 C 3.238281 34.179688 0.933594 28.613281 0.933594 22.8125 C 0.933594 17.007812 3.238281 11.441406 7.34375 7.335938 Z M 7.34375 7.335938 " clip-rule="nonzero"/></clipPath><clipPath id="400f2e6eb7"><rect x="0" width="123" y="0" height="123"/></clipPath><clipPath id="50032654ff"><path d="M 39.902344 39.902344 L 190.941406 39.902344 L 190.941406 190.941406 L 39.902344 190.941406 Z M 39.902344 39.902344 " clip-rule="nonzero"/></clipPath><clipPath id="5cc5ef27fd"><path d="M 115.421875 39.902344 C 73.714844 39.902344 39.902344 73.714844 39.902344 115.421875 C 39.902344 157.128906 73.714844 190.941406 115.421875 190.941406 C 157.128906 190.941406 190.941406 157.128906 190.941406 115.421875 C 190.941406 73.714844 157.128906 39.902344 115.421875 39.902344 Z M 115.421875 39.902344 " clip-rule="nonzero"/></clipPath><clipPath id="6f1ae68599"><path d="M 0.902344 0.902344 L 151.941406 0.902344 L 151.941406 151.941406 L 0.902344 151.941406 Z M 0.902344 0.902344 " clip-rule="nonzero"/></clipPath><clipPath id="e1f149427f"><path d="M 76.421875 0.902344 C 34.714844 0.902344 0.902344 34.714844 0.902344 76.421875 C 0.902344 118.128906 34.714844 151.941406 76.421875 151.941406 C 118.128906 151.941406 151.941406 118.128906 151.941406 76.421875 C 151.941406 34.714844 118.128906 0.902344 76.421875 0.902344 Z M 76.421875 0.902344 " clip-rule="nonzero"/></clipPath><clipPath id="a060e3541b"><rect x="0" width="152" y="0" height="152"/></clipPath><clipPath id="2ceb9f7d9c"><rect x="0" width="297" y="0" height="297"/></clipPath></defs><rect x="-37.5" width="450" fill="#ffffff" y="-37.499999" height="449.999989" fill-opacity="1"/><rect x="-37.5" width="450" fill="#ffffff" y="-37.499999" height="449.999989" fill-opacity="1"/><g transform="matrix(1, 0, 0, 1, 37, 37)"><g clip-path="url(#2ceb9f7d9c)"><g clip-path="url(#f6867121fd)"><g clip-path="url(#db37ff0930)"><g><g clip-path="url(#b643ac52bf)"><g clip-path="url(#82b8e47622)"><g clip-path="url(#d9c48251ca)"><path fill="#000000" d="M 0.5 0.5 L 230.34375 0.5 L 230.34375 230.34375 L 0.5 230.34375 Z M 0.5 0.5 " fill-opacity="1" fill-rule="nonzero"/></g></g></g></g></g></g><g clip-path="url(#efdb0f7ae2)"><g clip-path="url(#d0b502e9f2)"><g clip-path="url(#9ab4c0bf72)"><g transform="matrix(1, 0, 0, 1, 165, 165)"><g clip-path="url(#400f2e6eb7)"><g clip-path="url(#69db7a13b3)"><g clip-path="url(#e827ae3a5c)"><g clip-path="url(#4bcd0d032f)"><path fill="#000000" d="M -8.132812 22.8125 L 22.816406 -8.140625 L 131.382812 100.425781 L 100.433594 131.375 Z M -8.132812 22.8125 " fill-opacity="1" fill-rule="nonzero"/></g></g></g></g></g></g></g></g><g clip-path="url(#50032654ff)"><g clip-path="url(#5cc5ef27fd)"><g transform="matrix(1, 0, 0, 1, 39, 39)"><g clip-path="url(#a060e3541b)"><g clip-path="url(#6f1ae68599)"><g clip-path="url(#e1f149427f)"><path fill="#ffffff" d="M 0.902344 0.902344 L 151.941406 0.902344 L 151.941406 151.941406 L 0.902344 151.941406 Z M 0.902344 0.902344 " fill-opacity="1" fill-rule="nonzero"/></g></g></g></g></g></g></g></g></svg>