<svg xmlns="http://www.w3.org/2000/svg" xmlns:xlink="http://www.w3.org/1999/xlink" width="500" zoomAndPan="magnify" viewBox="0 0 375 374.999991" height="500" preserveAspectRatio="xMidYMid meet" version="1.0"><defs><g/><clipPath id="8ac1515061"><path d="M 0.433594 3.941406 L 288.566406 3.941406 L 288.566406 292.070312 L 0.433594 292.070312 Z M 0.433594 3.941406 " clip-rule="nonzero"/></clipPath><clipPath id="9cc40d2f9f"><path d="M 144.5 3.941406 C 64.933594 3.941406 0.433594 68.441406 0.433594 148.003906 C 0.433594 227.570312 64.933594 292.070312 144.5 292.070312 C 224.066406 292.070312 288.566406 227.570312 288.566406 148.003906 C 288.566406 68.441406 224.066406 3.941406 144.5 3.941406 Z M 144.5 3.941406 " clip-rule="nonzero"/></clipPath><clipPath id="af6b25c2f0"><path d="M 0.433594 0.941406 L 288.566406 0.941406 L 288.566406 289.070312 L 0.433594 289.070312 Z M 0.433594 0.941406 " clip-rule="nonzero"/></clipPath><clipPath id="a17bfea87b"><path d="M 144.5 0.941406 C 64.933594 0.941406 0.433594 65.441406 0.433594 145.003906 C 0.433594 224.570312 64.933594 289.070312 144.5 289.070312 C 224.066406 289.070312 288.566406 224.570312 288.566406 145.003906 C 288.566406 65.441406 224.066406 0.941406 144.5 0.941406 Z M 144.5 0.941406 " clip-rule="nonzero"/></clipPath><clipPath id="04bd802176"><rect x="0" width="289" y="0" height="290"/></clipPath><clipPath id="63d5082bd0"><path d="M 96 0.601562 L 194 0.601562 L 194 294.121094 L 96 294.121094 Z M 96 0.601562 " clip-rule="nonzero"/></clipPath><clipPath id="d5b15df67c"><rect x="0" width="98" y="0" height="295"/></clipPath><clipPath id="c04baeecad"><rect x="0" width="289" y="0" height="295"/></clipPath></defs><rect x="-37.5" width="450" fill="#ffffff" y="-37.499999" height="449.999989" fill-opacity="1"/><rect x="-37.5" width="450" fill="#ffffff" y="-37.499999" height="449.999989" fill-opacity="1"/><g transform="matrix(1, 0, 0, 1, 43, 39)"><g clip-path="url(#c04baeecad)"><g clip-path="url(#8ac1515061)"><g clip-path="url(#9cc40d2f9f)"><g transform="matrix(1, 0, 0, 1, 0, 3)"><g clip-path="url(#04bd802176)"><g clip-path="url(#af6b25c2f0)"><g clip-path="url(#a17bfea87b)"><path fill="#000000" d="M 0.433594 0.941406 L 288.566406 0.941406 L 288.566406 289.070312 L 0.433594 289.070312 Z M 0.433594 0.941406 " fill-opacity="1" fill-rule="nonzero"/></g></g></g></g></g></g><g clip-path="url(#63d5082bd0)"><g transform="matrix(1, 0, 0, 1, 96, 0)"><g clip-path="url(#d5b15df67c)"><g fill="#ffffff" fill-opacity="1"><g transform="translate(1.177334, 235.061697)"><g><path d="M 20.6875 -165.898438 C 20.6875 -173.074219 23.171875 -179.125 28.144531 -184.050781 C 33.109375 -188.972656 39.175781 -191.433594 46.339844 -191.433594 C 53.347656 -191.433594 59.3125 -188.96875 64.238281 -184.042969 C 69.164062 -179.117188 71.628906 -173.070312 71.628906 -165.898438 C 71.628906 -158.890625 69.164062 -152.925781 64.238281 -148 C 59.3125 -143.074219 53.347656 -140.609375 46.339844 -140.609375 C 39.179688 -140.609375 33.113281 -143.050781 28.148438 -147.925781 C 23.175781 -152.8125 20.6875 -158.804688 20.6875 -165.898438 Z M 25.046875 -165.898438 C 25.046875 -160.023438 27.097656 -155.066406 31.203125 -151.035156 C 35.320312 -146.992188 40.367188 -144.96875 46.339844 -144.96875 C 52.144531 -144.96875 57.082031 -147.007812 61.15625 -151.082031 C 65.230469 -155.15625 67.269531 -160.097656 67.269531 -165.898438 C 67.269531 -171.867188 65.230469 -176.886719 61.15625 -180.960938 C 57.082031 -185.035156 52.144531 -187.074219 46.339844 -187.074219 C 40.371094 -187.074219 35.328125 -185.03125 31.210938 -180.953125 C 27.101562 -176.878906 25.046875 -171.863281 25.046875 -165.898438 Z M 69.9375 -16.898438 L 90.601562 -16.898438 L 90.601562 2.179688 L 6.335938 2.179688 L 6.335938 -16.898438 L 26.878906 -16.898438 L 26.878906 -14.71875 L 24.699219 -14.71875 L 24.699219 -114.574219 L 26.878906 -114.574219 L 26.878906 -112.394531 L 6.335938 -112.394531 L 6.335938 -131.46875 L 72.117188 -131.46875 L 72.117188 -14.71875 L 69.9375 -14.71875 Z M 67.757812 -12.539062 L 67.757812 -129.289062 L 69.9375 -129.289062 L 69.9375 -127.109375 L 8.515625 -127.109375 L 8.515625 -129.289062 L 10.695312 -129.289062 L 10.695312 -114.574219 L 8.515625 -114.574219 L 8.515625 -116.753906 L 29.058594 -116.753906 L 29.058594 -12.539062 L 8.515625 -12.539062 L 8.515625 -14.71875 L 10.695312 -14.71875 L 10.695312 0 L 8.515625 0 L 8.515625 -2.179688 L 88.421875 -2.179688 L 88.421875 0 L 86.242188 0 L 86.242188 -14.71875 L 88.421875 -14.71875 L 88.421875 -12.539062 Z M 67.757812 -12.539062 "/></g></g></g><g fill="#ffffff" fill-opacity="1"><g transform="translate(1.177334, 235.061697)"><g><path d="M 22.859375 -165.90625 C 22.859375 -172.46875 25.128906 -178 29.671875 -182.5 C 34.210938 -187 39.769531 -189.25 46.34375 -189.25 C 52.75 -189.25 58.203125 -187 62.703125 -182.5 C 67.203125 -178 69.453125 -172.46875 69.453125 -165.90625 C 69.453125 -159.5 67.203125 -154.046875 62.703125 -149.546875 C 58.203125 -145.046875 52.75 -142.796875 46.34375 -142.796875 C 39.769531 -142.796875 34.210938 -145.023438 29.671875 -149.484375 C 25.128906 -153.941406 22.859375 -159.414062 22.859375 -165.90625 Z M 69.9375 -14.71875 L 88.421875 -14.71875 L 88.421875 0 L 8.515625 0 L 8.515625 -14.71875 L 26.875 -14.71875 L 26.875 -114.578125 L 8.515625 -114.578125 L 8.515625 -129.296875 L 69.9375 -129.296875 Z M 69.9375 -14.71875 "/></g></g></g></g></g></g></g></g></svg>